<svg width="32" height="32" viewBox="0 0 32 32" fill="none" xmlns="http://www.w3.org/2000/svg">
  <defs>
    <linearGradient id="bg" x1="0" y1="0" x2="32" y2="32" gradientUnits="userSpaceOnUse">
      <stop offset="0%" stop-color="#2B6CB0"/>
      <stop offset="100%" stop-color="#38B2AC"/>
    </linearGradient>
  </defs>
  <rect width="32" height="32" rx="8" fill="url(#bg)"/>
  <path d="M16 6C13.5 6 11.5 7.5 11 10C10.5 12.5 9 14 8 15C7 16 6.5 18 7.5 20C8.5 22 10 22.5 11.5 22C13 21.5 14 20.5 16 20.5C18 20.5 19 21.5 20.5 22C22 22.5 23.5 22 24.5 20C25.5 18 25 16 24 15C23 14 21.5 12.5 21 10C20.5 7.5 18.5 6 16 6Z" fill="white"/>
</svg>
